<svg width="476" height="214" viewBox="0 0 476 214" fill="none" xmlns="http://www.w3.org/2000/svg">
<path d="M212.009 87.1422H203.134C202.776 87.1347 202.435 86.9906 202.181 86.7401C201.928 86.4896 201.782 86.152 201.774 85.7978V84.1766C201.771 77.4117 204.884 74.0293 211.114 74.0293C213.177 74.0068 215.221 74.4144 217.114 75.2254C217.414 75.3595 217.738 75.4311 218.067 75.4357C218.396 75.4403 218.723 75.3778 219.026 75.2521C219.33 75.1264 219.604 74.9403 219.831 74.7052C220.059 74.4702 220.235 74.1913 220.349 73.886L224.094 63.6744C224.299 63.118 224.287 62.5059 224.061 61.9576C223.834 61.4094 223.409 60.9641 222.869 60.7087C221.271 59.9565 219.594 59.3797 217.869 58.9887C214.999 58.3236 212.061 57.9919 209.114 58.0002C200.428 57.9969 193.695 60.3381 188.915 65.0237C184.135 69.7094 181.745 76.041 181.745 84.0185V145.421C181.745 148.113 182.827 150.694 184.752 152.597C186.677 154.5 189.288 155.569 192.01 155.569C193.358 155.569 194.693 155.306 195.938 154.796C197.183 154.286 198.315 153.539 199.268 152.597C200.221 151.654 200.977 150.536 201.493 149.305C202.009 148.074 202.274 146.754 202.274 145.421V104.12C202.274 103.757 202.42 103.409 202.68 103.152C202.94 102.895 203.292 102.751 203.659 102.751H212.009C214.103 102.751 216.111 101.929 217.591 100.465C219.072 99.0017 219.904 97.0166 219.904 94.9467C219.904 92.8769 219.072 90.8918 217.591 89.4281C216.111 87.9645 214.103 87.1422 212.009 87.1422Z" fill="#1890FF"/>
<path d="M336.144 117.838C336.144 107.349 332.985 99.1114 326.669 93.1242C320.353 87.1402 311.58 84.1499 300.35 84.1532C289.12 84.1565 280.347 87.1485 274.031 93.1291C267.715 99.1098 264.556 107.348 264.556 117.843V145.423C264.556 148.114 265.638 150.695 267.563 152.598C269.488 154.501 272.099 155.57 274.821 155.57C277.543 155.57 280.154 154.501 282.079 152.598C284.004 150.695 285.086 148.114 285.086 145.423V118.495C285.082 112.702 286.354 108.323 288.9 105.357C291.447 102.392 295.175 100.909 300.085 100.909C305.088 100.929 308.883 102.411 311.47 105.357C314.056 108.303 315.349 112.682 315.349 118.495V145.418C315.349 148.109 316.431 150.69 318.356 152.593C320.281 154.496 322.892 155.565 325.614 155.565H325.879C328.601 155.565 331.212 154.496 333.137 152.593C335.062 150.69 336.144 148.109 336.144 145.418V117.838Z" fill="#1890FF"/>
<path fill-rule="evenodd" clip-rule="evenodd" d="M412.29 124.865H365.452C365.283 124.865 365.116 124.904 364.965 124.979C364.814 125.054 364.683 125.162 364.581 125.296C364.48 125.43 364.411 125.585 364.381 125.749C364.351 125.914 364.36 126.083 364.407 126.244C365.469 129.862 367.766 133.006 370.907 135.14C374.49 137.655 378.958 138.912 384.311 138.912C387.653 138.969 390.976 138.418 394.116 137.285C395.075 136.921 396.005 136.488 396.901 135.991C400.066 134.241 404.616 134.869 407.076 137.503L407.185 137.622C408.02 138.519 408.64 139.591 408.999 140.757C409.358 141.923 409.448 143.154 409.262 144.359C409.076 145.564 408.618 146.712 407.923 147.719C407.228 148.726 406.313 149.566 405.246 150.176C399.452 153.507 392.299 155.173 383.786 155.173C375.787 155.173 368.724 153.634 362.597 150.557C356.719 147.714 351.788 143.267 348.388 137.74C345.055 132.28 343.388 126.079 343.388 119.136C343.296 112.629 345.002 106.22 348.323 100.601C351.552 95.1514 356.246 90.693 361.882 87.7202C367.629 84.6459 374.052 83.1087 381.152 83.1087C388.081 83.1087 394.354 84.5816 399.971 87.5275C405.518 90.4159 410.109 94.8201 413.195 100.215C416.398 105.721 418 112.117 418 119.403V119.472C417.938 120.926 417.309 122.3 416.244 123.306C415.18 124.311 413.763 124.87 412.29 124.865ZM369.572 102.36C366.786 104.677 364.863 107.846 364.107 111.366C364.061 111.565 364.062 111.772 364.108 111.971C364.154 112.169 364.244 112.356 364.373 112.515C364.502 112.675 364.665 112.803 364.851 112.892C365.037 112.981 365.241 113.027 365.447 113.027H397.001C397.207 113.026 397.411 112.979 397.597 112.89C397.783 112.801 397.946 112.672 398.074 112.512C398.202 112.352 398.292 112.165 398.338 111.966C398.383 111.767 398.382 111.56 398.336 111.361C397.551 107.875 395.635 104.737 392.881 102.425C389.721 99.7886 385.861 98.4706 381.302 98.4706C376.638 98.4607 372.729 99.7573 369.572 102.36Z" fill="#1890FF"/>
<path fill-rule="evenodd" clip-rule="evenodd" d="M230.109 88.4072C232.855 85.6913 236.579 84.1632 240.463 84.158C244.348 84.1632 248.072 85.6913 250.818 88.4072C253.564 91.123 255.109 94.8049 255.113 98.645V140.707C255.113 144.548 253.569 148.232 250.822 150.948C248.075 153.664 244.349 155.189 240.463 155.189C236.578 155.189 232.852 153.664 230.105 150.948C227.357 148.232 225.814 144.548 225.814 140.707V98.645C225.818 94.8049 227.363 91.123 230.109 88.4072ZM247.722 91.4697C245.797 89.5667 243.186 88.4977 240.463 88.4977C239.115 88.4977 237.781 88.7601 236.535 89.2701C235.29 89.78 234.158 90.5275 233.205 91.4697C232.252 92.412 231.496 93.5307 230.98 94.7618C230.464 95.9929 230.199 97.3124 230.199 98.645V140.707C230.199 143.399 231.28 145.98 233.205 147.883C235.13 149.786 237.741 150.855 240.463 150.855C243.186 150.855 245.797 149.786 247.722 147.883C249.647 145.98 250.728 143.399 250.728 140.707V98.645C250.728 95.9538 249.647 93.3727 247.722 91.4697Z" fill="#1890FF"/>
<path d="M248.273 98.4069C248.273 102.671 244.776 106.127 240.463 106.127C236.15 106.127 232.653 102.671 232.653 98.4069C232.653 94.143 236.15 90.6864 240.463 90.6864C244.776 90.6864 248.273 94.143 248.273 98.4069Z" fill="#3FDCF7"/>
<path fill-rule="evenodd" clip-rule="evenodd" d="M100.163 76.5119C100.163 68.8302 98.4577 65.1867 103.003 60.6747H154.367C160.548 62.4961 173.101 67.915 173.862 75.0196C175.003 78.574 174.971 86.5239 174.812 90.0546C174.654 90.4971 173.957 92.1299 172.435 95.1213C170.914 98.1127 166.412 101.497 164.352 102.815L160.073 104.133V105.324C166.159 105.324 169.582 109.588 170.533 111.72C174.717 116.727 174.495 123.436 173.862 126.164V131.46C171.199 138.778 168.314 142.805 167.205 143.904L160.073 149.224L153.416 153.675L111.971 153.674L88.2764 153.675C82.5707 142.225 88.4349 138.465 92.0802 138.016H103.003L111.971 76.5119H100.163ZM122.035 138.016L125.839 115.572H146.76C150.944 115.572 152.941 119.424 153.416 121.349V129.534C152.624 132.362 149.042 138.016 141.054 138.016H122.035ZM146.76 97.2765H128.692L132.219 78.0182H148.661C150.88 78.0182 155.318 79.3698 155.318 84.7764V89.5732C155.001 92.141 152.846 97.2765 146.76 97.2765Z" fill="#3FDCF7"/>
</svg>
